<svg width="600" height="600" viewbox = "0 0 600 600"  xmlns="http://www.w3.org/2000/svg">
<!--<json>{
  "shapes": [],
  "glyph": "0322,0505,0505,0505,0505,0505,0505,0505,0502,0502,0502,0502,0502,0502,0502,0502,0502,0502,0502,0504,0502,0502,0502,0502,0502,0504,0502,0502,0502,0504,0502,0502,0504,0502,0504,0502,0504,0502,0500,0500,0500,0506,0500,0500,0500,0500,0500,0507,0500,0500,0500,0507,0500,0500,0507,0500,0500,0507,0500,0507,0500,0507,0500,0507,0500,0507,0500,0507,0500,0507,0500,0503,0504,0503,0503,0503,0504,0503,0503,0504,0503,0503,0503,0503,0503,0504,0503,0503,0503,0503,0503,0503,0503,0503,0503,0505,0503,0503,0503,0505,0503,0503,0503,0503,0505,0503,0503,0505,0503,0505,0503,0505,0503,0503,0505,0503,0505,0503,0501,0507,0501,0501,0507,0501,0507,0501,0501,0507,0501,0501,0507,0501,0501,0501,0501,0501,0501,0501,0506,0501,0501,0506,0501,0501,0506,0501,0502,0505,0502,0502,0505,0502,0502,0502,0505,0502,0502,0502,0502,0502,0505,0502,0502,0502,0502,0502,0502,0502,0502,0502,0502,0502,0506,0506,0506,0506,0506,0506,0506,0506,0506,0506,0506,0506,0501,0501,0501,0501,0506,0501,0501,0501,0501,0501,0501,0501,0501,0507,0501,0507,0501,0503,0505,0503,0503,0503,0505,0503,0503,0503,0503,0503,0503,0503,0503,0503,0503,0503,0503,0504,0503,0503,0503,0503,0503,0504,0503,0503,0504,0503,0500,0500,0500,0500,0500,0500,0500,0500,0506,0500,0500,0500,0500,0500,0504,0504,0504,0504,0502,0502,0502,0502,0502,0502,0504,0502,0502,0504,0502,0504,0502,0500,0506,0500,0500,0500,0500,0507,0500,0507,0500,0507,0500,0503,0504,0503,0503,0503,0503,0503,0503,0505,0503,0503,0505,0503,0505,0503,0501,0507,0501,0501,0501,0506,0501,0501,0506,0501,0505,0502,0505,0502,0507,0507,0507,0507,0507,0507,0504,0507,0507,0504,0507,0504,0507,0504,0507,0504,0507,0507,0502,0504,0502,0504,0502,0500,0500,0506,0500,0500,0500,0500,0507,0500,0506,0506,0506,0504,0504,0504,0504,0506,0504,0506,0504,0504,0504,0506,0501,0501,0501,0505,0502,0502,0502,0502,0502,0504,0502,0502,0504,0502,0504,0502,0504,0502,0500,0500,0500,0507,0500,0505,0506,0506,0506,0506,0502,0502,0505,0502,0501,0501,0507,0501,0503,0503,0504,0503,0500,0500,0504,0502,0505,0504,0506,0506,0506,0506,0506,0506,0506,0506,0506,0506,0504,0504,0506,0501,0501,0505,0502,0505,0502,0502,0505,0502,0502,0505,0502,0502,0502,0505,0505,0505,0505,0505,0505,0502,0502,0505,0502,0505,0502,0505,0502,0501,0506,0501,0501,0501,0507,0501,0501,0507,0501,0503,0504,0503,0503,0504,0503,0503,0504,0503,0507,0500,0500,0500,0500,0500,0506,0500,0504,0502,0502,0505,0505,0505,0505,0505,0507,0505,0505,0505,0507,0507,0507,0505,0507,0504,0503,0503,0503,0505,0503,0505,0503,0507,0501,0501,0501,0506,0501,0506,0501,0502,0502,0502,0502,0504,0502,0504,0502,0500,0500,0500,0507,0500,0504,0503,0507,0507,0507,0507,0507,0507,0507,0507,0507,0507,0507,0505,0505,0505,0505,",
  "x0": 300,
  "y0": 300,
  "unit": 72,
  "width": 600,
  "height": 600,
  "style": {
    "color0": "black",
    "fill0": "black",
    "line0": 1,
    "color1": "black",
    "fill1": "black",
    "line1": 5,
    "color2": "red",
    "fill2": "red",
    "line2": 1,
    "color3": "#FF7900",
    "fill3": "#FF7900",
    "line3": 1,
    "color4": "yellow",
    "fill4": "yellow",
    "line4": 1,
    "color5": "green",
    "fill5": "green",
    "line5": 1,
    "color6": "blue",
    "fill6": "blue",
    "line6": 1,
    "color7": "purple",
    "fill7": "purple",
    "line7": 1
  }
}</json>-->	<path d = "M293 365 L293 361 L289 361 L289 365 L293 365 Z" stroke = "#ff0000" stroke-width = "1" fill = "#ff0000" />	<path d = "M284 365 L284 361 L280 361 L280 365 L284 365 Z" stroke = "#ff0000" stroke-width = "1" fill = "#ff0000" />	<path d = "M275 365 L275 361 L271 361 L271 365 L275 365 Z" stroke = "#ff0000" stroke-width = "1" fill = "#ff0000" />	<path d = "M266 365 L266 361 L262 361 L262 365 L266 365 Z" stroke = "#ff0000" stroke-width = "1" fill = "#ff0000" />	<path d = "M257 365 L257 361 L253 361 L253 365 L257 365 Z" stroke = "#ff0000" stroke-width = "1" fill = "#ff0000" />	<path d = "M248 365 L248 361 L244 361 L244 365 L248 365 Z" stroke = "#ff0000" stroke-width = "1" fill = "#ff0000" />	<path d = "M239 365 L239 361 L235 361 L235 365 L239 365 Z" stroke = "#ff0000" stroke-width = "1" fill = "#ff0000" />	<path d = "M230 365 L230 361 L226 361 L226 365 L230 365 Z" stroke = "#ff0000" stroke-width = "1" fill = "#ff0000" />	<path d = "M221 365 L221 361 L217 361 L217 365 L221 365 Z" stroke = "#ff0000" stroke-width = "1" fill = "#ff0000" />	<path d = "M212 365 L212 361 L208 361 L208 365 L212 365 Z" stroke = "#ff0000" stroke-width = "1" fill = "#ff0000" />	<path d = "M203 365 L203 361 L199 361 L199 365 L203 365 Z" stroke = "#ff0000" stroke-width = "1" fill = "#ff0000" />	<path d = "M194 356 L194 352 L190 352 L190 356 L194 356 Z" stroke = "#ff0000" stroke-width = "1" fill = "#ff0000" />	<path d = "M185 356 L185 352 L181 352 L181 356 L185 356 Z" stroke = "#ff0000" stroke-width = "1" fill = "#ff0000" />	<path d = "M176 356 L176 352 L172 352 L172 356 L176 356 Z" stroke = "#ff0000" stroke-width = "1" fill = "#ff0000" />	<path d = "M167 356 L167 352 L163 352 L163 356 L167 356 Z" stroke = "#ff0000" stroke-width = "1" fill = "#ff0000" />	<path d = "M158 356 L158 352 L154 352 L154 356 L158 356 Z" stroke = "#ff0000" stroke-width = "1" fill = "#ff0000" />	<path d = "M149 347 L149 343 L145 343 L145 347 L149 347 Z" stroke = "#ff0000" stroke-width = "1" fill = "#ff0000" />	<path d = "M140 347 L140 343 L136 343 L136 347 L140 347 Z" stroke = "#ff0000" stroke-width = "1" fill = "#ff0000" />	<path d = "M131 347 L131 343 L127 343 L127 347 L131 347 Z" stroke = "#ff0000" stroke-width = "1" fill = "#ff0000" />	<path d = "M122 338 L122 334 L118 334 L118 338 L122 338 Z" stroke = "#ff0000" stroke-width = "1" fill = "#ff0000" />	<path d = "M113 338 L113 334 L109 334 L109 338 L113 338 Z" stroke = "#ff0000" stroke-width = "1" fill = "#ff0000" />	<path d = "M104 329 L104 325 L100 325 L100 329 L104 329 Z" stroke = "#ff0000" stroke-width = "1" fill = "#ff0000" />	<path d = "M95 320 L95 316 L91 316 L91 320 L95 320 Z" stroke = "#ff0000" stroke-width = "1" fill = "#ff0000" />	<path d = "M86 311 L86 307 L82 307 L82 311 L86 311 Z" stroke = "#ff0000" stroke-width = "1" fill = "#ff0000" />	<path d = "M86 302 L86 298 L82 298 L82 302 L86 302 Z" stroke = "#ff0000" stroke-width = "1" fill = "#ff0000" />	<path d = "M86 293 L86 289 L82 289 L82 293 L86 293 Z" stroke = "#ff0000" stroke-width = "1" fill = "#ff0000" />	<path d = "M86 284 L86 280 L82 280 L82 284 L86 284 Z" stroke = "#ff0000" stroke-width = "1" fill = "#ff0000" />	<path d = "M77 275 L77 271 L73 271 L73 275 L77 275 Z" stroke = "#ff0000" stroke-width = "1" fill = "#ff0000" />	<path d = "M77 266 L77 262 L73 262 L73 266 L77 266 Z" stroke = "#ff0000" stroke-width = "1" fill = "#ff0000" />	<path d = "M77 257 L77 253 L73 253 L73 257 L77 257 Z" stroke = "#ff0000" stroke-width = "1" fill = "#ff0000" />	<path d = "M77 248 L77 244 L73 244 L73 248 L77 248 Z" stroke = "#ff0000" stroke-width = "1" fill = "#ff0000" />	<path d = "M77 239 L77 235 L73 235 L73 239 L77 239 Z" stroke = "#ff0000" stroke-width = "1" fill = "#ff0000" />	<path d = "M86 230 L86 226 L82 226 L82 230 L86 230 Z" stroke = "#ff0000" stroke-width = "1" fill = "#ff0000" />	<path d = "M86 221 L86 217 L82 217 L82 221 L86 221 Z" stroke = "#ff0000" stroke-width = "1" fill = "#ff0000" />	<path d = "M86 212 L86 208 L82 208 L82 212 L86 212 Z" stroke = "#ff0000" stroke-width = "1" fill = "#ff0000" />	<path d = "M95 203 L95 199 L91 199 L91 203 L95 203 Z" stroke = "#ff0000" stroke-width = "1" fill = "#ff0000" />	<path d = "M95 194 L95 190 L91 190 L91 194 L95 194 Z" stroke = "#ff0000" stroke-width = "1" fill = "#ff0000" />	<path d = "M104 185 L104 181 L100 181 L100 185 L104 185 Z" stroke = "#ff0000" stroke-width = "1" fill = "#ff0000" />	<path d = "M104 176 L104 172 L100 172 L100 176 L104 176 Z" stroke = "#ff0000" stroke-width = "1" fill = "#ff0000" />	<path d = "M113 167 L113 163 L109 163 L109 167 L113 167 Z" stroke = "#ff0000" stroke-width = "1" fill = "#ff0000" />	<path d = "M122 158 L122 154 L118 154 L118 158 L122 158 Z" stroke = "#ff0000" stroke-width = "1" fill = "#ff0000" />	<path d = "M131 149 L131 145 L127 145 L127 149 L131 149 Z" stroke = "#ff0000" stroke-width = "1" fill = "#ff0000" />	<path d = "M140 140 L140 136 L136 136 L136 140 L140 140 Z" stroke = "#ff0000" stroke-width = "1" fill = "#ff0000" />	<path d = "M149 131 L149 127 L145 127 L145 131 L149 131 Z" stroke = "#ff0000" stroke-width = "1" fill = "#ff0000" />	<path d = "M158 122 L158 118 L154 118 L154 122 L158 122 Z" stroke = "#ff0000" stroke-width = "1" fill = "#ff0000" />	<path d = "M167 113 L167 109 L163 109 L163 113 L167 113 Z" stroke = "#ff0000" stroke-width = "1" fill = "#ff0000" />	<path d = "M176 113 L176 109 L172 109 L172 113 L176 113 Z" stroke = "#ff0000" stroke-width = "1" fill = "#ff0000" />	<path d = "M185 104 L185 100 L181 100 L181 104 L185 104 Z" stroke = "#ff0000" stroke-width = "1" fill = "#ff0000" />	<path d = "M194 104 L194 100 L190 100 L190 104 L194 104 Z" stroke = "#ff0000" stroke-width = "1" fill = "#ff0000" />	<path d = "M203 104 L203 100 L199 100 L199 104 L203 104 Z" stroke = "#ff0000" stroke-width = "1" fill = "#ff0000" />	<path d = "M212 95 L212 91 L208 91 L208 95 L212 95 Z" stroke = "#ff0000" stroke-width = "1" fill = "#ff0000" />	<path d = "M221 95 L221 91 L217 91 L217 95 L221 95 Z" stroke = "#ff0000" stroke-width = "1" fill = "#ff0000" />	<path d = "M230 86 L230 82 L226 82 L226 86 L230 86 Z" stroke = "#ff0000" stroke-width = "1" fill = "#ff0000" />	<path d = "M239 86 L239 82 L235 82 L235 86 L239 86 Z" stroke = "#ff0000" stroke-width = "1" fill = "#ff0000" />	<path d = "M248 86 L248 82 L244 82 L244 86 L248 86 Z" stroke = "#ff0000" stroke-width = "1" fill = "#ff0000" />	<path d = "M257 86 L257 82 L253 82 L253 86 L257 86 Z" stroke = "#ff0000" stroke-width = "1" fill = "#ff0000" />	<path d = "M266 86 L266 82 L262 82 L262 86 L266 86 Z" stroke = "#ff0000" stroke-width = "1" fill = "#ff0000" />	<path d = "M275 77 L275 73 L271 73 L271 77 L275 77 Z" stroke = "#ff0000" stroke-width = "1" fill = "#ff0000" />	<path d = "M284 77 L284 73 L280 73 L280 77 L284 77 Z" stroke = "#ff0000" stroke-width = "1" fill = "#ff0000" />	<path d = "M293 77 L293 73 L289 73 L289 77 L293 77 Z" stroke = "#ff0000" stroke-width = "1" fill = "#ff0000" />	<path d = "M302 77 L302 73 L298 73 L298 77 L302 77 Z" stroke = "#ff0000" stroke-width = "1" fill = "#ff0000" />	<path d = "M311 77 L311 73 L307 73 L307 77 L311 77 Z" stroke = "#ff0000" stroke-width = "1" fill = "#ff0000" />	<path d = "M320 77 L320 73 L316 73 L316 77 L320 77 Z" stroke = "#ff0000" stroke-width = "1" fill = "#ff0000" />	<path d = "M329 77 L329 73 L325 73 L325 77 L329 77 Z" stroke = "#ff0000" stroke-width = "1" fill = "#ff0000" />	<path d = "M338 77 L338 73 L334 73 L334 77 L338 77 Z" stroke = "#ff0000" stroke-width = "1" fill = "#ff0000" />	<path d = "M347 77 L347 73 L343 73 L343 77 L347 77 Z" stroke = "#ff0000" stroke-width = "1" fill = "#ff0000" />	<path d = "M356 86 L356 82 L352 82 L352 86 L356 86 Z" stroke = "#ff0000" stroke-width = "1" fill = "#ff0000" />	<path d = "M365 86 L365 82 L361 82 L361 86 L365 86 Z" stroke = "#ff0000" stroke-width = "1" fill = "#ff0000" />	<path d = "M374 86 L374 82 L370 82 L370 86 L374 86 Z" stroke = "#ff0000" stroke-width = "1" fill = "#ff0000" />	<path d = "M383 95 L383 91 L379 91 L379 95 L383 95 Z" stroke = "#ff0000" stroke-width = "1" fill = "#ff0000" />	<path d = "M392 95 L392 91 L388 91 L388 95 L392 95 Z" stroke = "#ff0000" stroke-width = "1" fill = "#ff0000" />	<path d = "M401 95 L401 91 L397 91 L397 95 L401 95 Z" stroke = "#ff0000" stroke-width = "1" fill = "#ff0000" />	<path d = "M410 95 L410 91 L406 91 L406 95 L410 95 Z" stroke = "#ff0000" stroke-width = "1" fill = "#ff0000" />	<path d = "M419 104 L419 100 L415 100 L415 104 L419 104 Z" stroke = "#ff0000" stroke-width = "1" fill = "#ff0000" />	<path d = "M428 104 L428 100 L424 100 L424 104 L428 104 Z" stroke = "#ff0000" stroke-width = "1" fill = "#ff0000" />	<path d = "M437 113 L437 109 L433 109 L433 113 L437 113 Z" stroke = "#ff0000" stroke-width = "1" fill = "#ff0000" />	<path d = "M446 122 L446 118 L442 118 L442 122 L446 122 Z" stroke = "#ff0000" stroke-width = "1" fill = "#ff0000" />	<path d = "M455 131 L455 127 L451 127 L451 131 L455 131 Z" stroke = "#ff0000" stroke-width = "1" fill = "#ff0000" />	<path d = "M464 131 L464 127 L460 127 L460 131 L464 131 Z" stroke = "#ff0000" stroke-width = "1" fill = "#ff0000" />	<path d = "M473 140 L473 136 L469 136 L469 140 L473 140 Z" stroke = "#ff0000" stroke-width = "1" fill = "#ff0000" />	<path d = "M482 149 L482 145 L478 145 L478 149 L482 149 Z" stroke = "#ff0000" stroke-width = "1" fill = "#ff0000" />	<path d = "M482 158 L482 154 L478 154 L478 158 L482 158 Z" stroke = "#ff0000" stroke-width = "1" fill = "#ff0000" />	<path d = "M491 167 L491 163 L487 163 L487 167 L491 167 Z" stroke = "#ff0000" stroke-width = "1" fill = "#ff0000" />	<path d = "M491 176 L491 172 L487 172 L487 176 L491 176 Z" stroke = "#ff0000" stroke-width = "1" fill = "#ff0000" />	<path d = "M500 185 L500 181 L496 181 L496 185 L500 185 Z" stroke = "#ff0000" stroke-width = "1" fill = "#ff0000" />	<path d = "M509 194 L509 190 L505 190 L505 194 L509 194 Z" stroke = "#ff0000" stroke-width = "1" fill = "#ff0000" />	<path d = "M509 203 L509 199 L505 199 L505 203 L509 203 Z" stroke = "#ff0000" stroke-width = "1" fill = "#ff0000" />	<path d = "M518 212 L518 208 L514 208 L514 212 L518 212 Z" stroke = "#ff0000" stroke-width = "1" fill = "#ff0000" />	<path d = "M518 221 L518 217 L514 217 L514 221 L518 221 Z" stroke = "#ff0000" stroke-width = "1" fill = "#ff0000" />	<path d = "M527 230 L527 226 L523 226 L523 230 L527 230 Z" stroke = "#ff0000" stroke-width = "1" fill = "#ff0000" />	<path d = "M527 239 L527 235 L523 235 L523 239 L527 239 Z" stroke = "#ff0000" stroke-width = "1" fill = "#ff0000" />	<path d = "M527 248 L527 244 L523 244 L523 248 L527 248 Z" stroke = "#ff0000" stroke-width = "1" fill = "#ff0000" />	<path d = "M527 257 L527 253 L523 253 L523 257 L527 257 Z" stroke = "#ff0000" stroke-width = "1" fill = "#ff0000" />	<path d = "M527 266 L527 262 L523 262 L523 266 L527 266 Z" stroke = "#ff0000" stroke-width = "1" fill = "#ff0000" />	<path d = "M527 275 L527 271 L523 271 L523 275 L527 275 Z" stroke = "#ff0000" stroke-width = "1" fill = "#ff0000" />	<path d = "M527 284 L527 280 L523 280 L523 284 L527 284 Z" stroke = "#ff0000" stroke-width = "1" fill = "#ff0000" />	<path d = "M518 293 L518 289 L514 289 L514 293 L518 293 Z" stroke = "#ff0000" stroke-width = "1" fill = "#ff0000" />	<path d = "M518 302 L518 298 L514 298 L514 302 L518 302 Z" stroke = "#ff0000" stroke-width = "1" fill = "#ff0000" />	<path d = "M509 311 L509 307 L505 307 L505 311 L509 311 Z" stroke = "#ff0000" stroke-width = "1" fill = "#ff0000" />	<path d = "M509 320 L509 316 L505 316 L505 320 L509 320 Z" stroke = "#ff0000" stroke-width = "1" fill = "#ff0000" />	<path d = "M500 329 L500 325 L496 325 L496 329 L500 329 Z" stroke = "#ff0000" stroke-width = "1" fill = "#ff0000" />	<path d = "M491 329 L491 325 L487 325 L487 329 L491 329 Z" stroke = "#ff0000" stroke-width = "1" fill = "#ff0000" />	<path d = "M482 338 L482 334 L478 334 L478 338 L482 338 Z" stroke = "#ff0000" stroke-width = "1" fill = "#ff0000" />	<path d = "M473 338 L473 334 L469 334 L469 338 L473 338 Z" stroke = "#ff0000" stroke-width = "1" fill = "#ff0000" />	<path d = "M464 347 L464 343 L460 343 L460 347 L464 347 Z" stroke = "#ff0000" stroke-width = "1" fill = "#ff0000" />	<path d = "M455 347 L455 343 L451 343 L451 347 L455 347 Z" stroke = "#ff0000" stroke-width = "1" fill = "#ff0000" />	<path d = "M446 347 L446 343 L442 343 L442 347 L446 347 Z" stroke = "#ff0000" stroke-width = "1" fill = "#ff0000" />	<path d = "M437 356 L437 352 L433 352 L433 356 L437 356 Z" stroke = "#ff0000" stroke-width = "1" fill = "#ff0000" />	<path d = "M428 356 L428 352 L424 352 L424 356 L428 356 Z" stroke = "#ff0000" stroke-width = "1" fill = "#ff0000" />	<path d = "M419 356 L419 352 L415 352 L415 356 L419 356 Z" stroke = "#ff0000" stroke-width = "1" fill = "#ff0000" />	<path d = "M410 356 L410 352 L406 352 L406 356 L410 356 Z" stroke = "#ff0000" stroke-width = "1" fill = "#ff0000" />	<path d = "M401 356 L401 352 L397 352 L397 356 L401 356 Z" stroke = "#ff0000" stroke-width = "1" fill = "#ff0000" />	<path d = "M392 365 L392 361 L388 361 L388 365 L392 365 Z" stroke = "#ff0000" stroke-width = "1" fill = "#ff0000" />	<path d = "M383 365 L383 361 L379 361 L379 365 L383 365 Z" stroke = "#ff0000" stroke-width = "1" fill = "#ff0000" />	<path d = "M374 365 L374 361 L370 361 L370 365 L374 365 Z" stroke = "#ff0000" stroke-width = "1" fill = "#ff0000" />	<path d = "M365 365 L365 361 L361 361 L361 365 L365 365 Z" stroke = "#ff0000" stroke-width = "1" fill = "#ff0000" />	<path d = "M356 365 L356 361 L352 361 L352 365 L356 365 Z" stroke = "#ff0000" stroke-width = "1" fill = "#ff0000" />	<path d = "M347 365 L347 361 L343 361 L343 365 L347 365 Z" stroke = "#ff0000" stroke-width = "1" fill = "#ff0000" />	<path d = "M338 365 L338 361 L334 361 L334 365 L338 365 Z" stroke = "#ff0000" stroke-width = "1" fill = "#ff0000" />	<path d = "M329 365 L329 361 L325 361 L325 365 L329 365 Z" stroke = "#ff0000" stroke-width = "1" fill = "#ff0000" />	<path d = "M320 365 L320 361 L316 361 L316 365 L320 365 Z" stroke = "#ff0000" stroke-width = "1" fill = "#ff0000" />	<path d = "M311 365 L311 361 L307 361 L307 365 L311 365 Z" stroke = "#ff0000" stroke-width = "1" fill = "#ff0000" />	<path d = "M302 365 L302 361 L298 361 L298 365 L302 365 Z" stroke = "#ff0000" stroke-width = "1" fill = "#ff0000" />	<path d = "M194 374 L194 370 L190 370 L190 374 L194 374 Z" stroke = "#ff0000" stroke-width = "1" fill = "#ff0000" />	<path d = "M194 383 L194 379 L190 379 L190 383 L194 383 Z" stroke = "#ff0000" stroke-width = "1" fill = "#ff0000" />	<path d = "M194 392 L194 388 L190 388 L190 392 L194 392 Z" stroke = "#ff0000" stroke-width = "1" fill = "#ff0000" />	<path d = "M194 401 L194 397 L190 397 L190 401 L194 401 Z" stroke = "#ff0000" stroke-width = "1" fill = "#ff0000" />	<path d = "M185 410 L185 406 L181 406 L181 410 L185 410 Z" stroke = "#ff0000" stroke-width = "1" fill = "#ff0000" />	<path d = "M185 419 L185 415 L181 415 L181 419 L185 419 Z" stroke = "#ff0000" stroke-width = "1" fill = "#ff0000" />	<path d = "M185 428 L185 424 L181 424 L181 428 L185 428 Z" stroke = "#ff0000" stroke-width = "1" fill = "#ff0000" />	<path d = "M185 437 L185 433 L181 433 L181 437 L185 437 Z" stroke = "#ff0000" stroke-width = "1" fill = "#ff0000" />	<path d = "M185 446 L185 442 L181 442 L181 446 L185 446 Z" stroke = "#ff0000" stroke-width = "1" fill = "#ff0000" />	<path d = "M185 455 L185 451 L181 451 L181 455 L185 455 Z" stroke = "#ff0000" stroke-width = "1" fill = "#ff0000" />	<path d = "M185 464 L185 460 L181 460 L181 464 L185 464 Z" stroke = "#ff0000" stroke-width = "1" fill = "#ff0000" />	<path d = "M185 473 L185 469 L181 469 L181 473 L185 473 Z" stroke = "#ff0000" stroke-width = "1" fill = "#ff0000" />	<path d = "M194 482 L194 478 L190 478 L190 482 L194 482 Z" stroke = "#ff0000" stroke-width = "1" fill = "#ff0000" />	<path d = "M203 491 L203 487 L199 487 L199 491 L203 491 Z" stroke = "#ff0000" stroke-width = "1" fill = "#ff0000" />	<path d = "M212 491 L212 487 L208 487 L208 491 L212 491 Z" stroke = "#ff0000" stroke-width = "1" fill = "#ff0000" />	<path d = "M221 500 L221 496 L217 496 L217 500 L221 500 Z" stroke = "#ff0000" stroke-width = "1" fill = "#ff0000" />	<path d = "M230 500 L230 496 L226 496 L226 500 L230 500 Z" stroke = "#ff0000" stroke-width = "1" fill = "#ff0000" />	<path d = "M239 500 L239 496 L235 496 L235 500 L239 500 Z" stroke = "#ff0000" stroke-width = "1" fill = "#ff0000" />	<path d = "M248 509 L248 505 L244 505 L244 509 L248 509 Z" stroke = "#ff0000" stroke-width = "1" fill = "#ff0000" />	<path d = "M257 509 L257 505 L253 505 L253 509 L257 509 Z" stroke = "#ff0000" stroke-width = "1" fill = "#ff0000" />	<path d = "M266 509 L266 505 L262 505 L262 509 L266 509 Z" stroke = "#ff0000" stroke-width = "1" fill = "#ff0000" />	<path d = "M275 509 L275 505 L271 505 L271 509 L275 509 Z" stroke = "#ff0000" stroke-width = "1" fill = "#ff0000" />	<path d = "M284 509 L284 505 L280 505 L280 509 L284 509 Z" stroke = "#ff0000" stroke-width = "1" fill = "#ff0000" />	<path d = "M293 509 L293 505 L289 505 L289 509 L293 509 Z" stroke = "#ff0000" stroke-width = "1" fill = "#ff0000" />	<path d = "M302 509 L302 505 L298 505 L298 509 L302 509 Z" stroke = "#ff0000" stroke-width = "1" fill = "#ff0000" />	<path d = "M311 509 L311 505 L307 505 L307 509 L311 509 Z" stroke = "#ff0000" stroke-width = "1" fill = "#ff0000" />	<path d = "M320 509 L320 505 L316 505 L316 509 L320 509 Z" stroke = "#ff0000" stroke-width = "1" fill = "#ff0000" />	<path d = "M329 509 L329 505 L325 505 L325 509 L329 509 Z" stroke = "#ff0000" stroke-width = "1" fill = "#ff0000" />	<path d = "M338 509 L338 505 L334 505 L334 509 L338 509 Z" stroke = "#ff0000" stroke-width = "1" fill = "#ff0000" />	<path d = "M347 509 L347 505 L343 505 L343 509 L347 509 Z" stroke = "#ff0000" stroke-width = "1" fill = "#ff0000" />	<path d = "M356 500 L356 496 L352 496 L352 500 L356 500 Z" stroke = "#ff0000" stroke-width = "1" fill = "#ff0000" />	<path d = "M365 500 L365 496 L361 496 L361 500 L365 500 Z" stroke = "#ff0000" stroke-width = "1" fill = "#ff0000" />	<path d = "M374 500 L374 496 L370 496 L370 500 L374 500 Z" stroke = "#ff0000" stroke-width = "1" fill = "#ff0000" />	<path d = "M383 500 L383 496 L379 496 L379 500 L383 500 Z" stroke = "#ff0000" stroke-width = "1" fill = "#ff0000" />	<path d = "M392 500 L392 496 L388 496 L388 500 L392 500 Z" stroke = "#ff0000" stroke-width = "1" fill = "#ff0000" />	<path d = "M401 491 L401 487 L397 487 L397 491 L401 491 Z" stroke = "#ff0000" stroke-width = "1" fill = "#ff0000" />	<path d = "M410 491 L410 487 L406 487 L406 491 L410 491 Z" stroke = "#ff0000" stroke-width = "1" fill = "#ff0000" />	<path d = "M419 482 L419 478 L415 478 L415 482 L419 482 Z" stroke = "#ff0000" stroke-width = "1" fill = "#ff0000" />	<path d = "M419 473 L419 469 L415 469 L415 473 L419 473 Z" stroke = "#ff0000" stroke-width = "1" fill = "#ff0000" />	<path d = "M419 464 L419 460 L415 460 L415 464 L419 464 Z" stroke = "#ff0000" stroke-width = "1" fill = "#ff0000" />	<path d = "M419 455 L419 451 L415 451 L415 455 L419 455 Z" stroke = "#ff0000" stroke-width = "1" fill = "#ff0000" />	<path d = "M419 446 L419 442 L415 442 L415 446 L419 446 Z" stroke = "#ff0000" stroke-width = "1" fill = "#ff0000" />	<path d = "M419 437 L419 433 L415 433 L415 437 L419 437 Z" stroke = "#ff0000" stroke-width = "1" fill = "#ff0000" />	<path d = "M419 428 L419 424 L415 424 L415 428 L419 428 Z" stroke = "#ff0000" stroke-width = "1" fill = "#ff0000" />	<path d = "M419 419 L419 415 L415 415 L415 419 L419 419 Z" stroke = "#ff0000" stroke-width = "1" fill = "#ff0000" />	<path d = "M419 410 L419 406 L415 406 L415 410 L419 410 Z" stroke = "#ff0000" stroke-width = "1" fill = "#ff0000" />	<path d = "M410 401 L410 397 L406 397 L406 401 L410 401 Z" stroke = "#ff0000" stroke-width = "1" fill = "#ff0000" />	<path d = "M410 392 L410 388 L406 388 L406 392 L410 392 Z" stroke = "#ff0000" stroke-width = "1" fill = "#ff0000" />	<path d = "M410 383 L410 379 L406 379 L406 383 L410 383 Z" stroke = "#ff0000" stroke-width = "1" fill = "#ff0000" />	<path d = "M410 374 L410 370 L406 370 L406 374 L410 374 Z" stroke = "#ff0000" stroke-width = "1" fill = "#ff0000" />	<path d = "M410 365 L410 361 L406 361 L406 365 L410 365 Z" stroke = "#ff0000" stroke-width = "1" fill = "#ff0000" />	<path d = "M401 329 L401 325 L397 325 L397 329 L401 329 Z" stroke = "#ff0000" stroke-width = "1" fill = "#ff0000" />	<path d = "M392 329 L392 325 L388 325 L388 329 L392 329 Z" stroke = "#ff0000" stroke-width = "1" fill = "#ff0000" />	<path d = "M383 329 L383 325 L379 325 L379 329 L383 329 Z" stroke = "#ff0000" stroke-width = "1" fill = "#ff0000" />	<path d = "M374 329 L374 325 L370 325 L370 329 L374 329 Z" stroke = "#ff0000" stroke-width = "1" fill = "#ff0000" />	<path d = "M365 329 L365 325 L361 325 L361 329 L365 329 Z" stroke = "#ff0000" stroke-width = "1" fill = "#ff0000" />	<path d = "M356 329 L356 325 L352 325 L352 329 L356 329 Z" stroke = "#ff0000" stroke-width = "1" fill = "#ff0000" />	<path d = "M347 320 L347 316 L343 316 L343 320 L347 320 Z" stroke = "#ff0000" stroke-width = "1" fill = "#ff0000" />	<path d = "M338 320 L338 316 L334 316 L334 320 L338 320 Z" stroke = "#ff0000" stroke-width = "1" fill = "#ff0000" />	<path d = "M329 311 L329 307 L325 307 L325 311 L329 311 Z" stroke = "#ff0000" stroke-width = "1" fill = "#ff0000" />	<path d = "M320 302 L320 298 L316 298 L316 302 L320 302 Z" stroke = "#ff0000" stroke-width = "1" fill = "#ff0000" />	<path d = "M320 293 L320 289 L316 289 L316 293 L320 293 Z" stroke = "#ff0000" stroke-width = "1" fill = "#ff0000" />	<path d = "M311 284 L311 280 L307 280 L307 284 L311 284 Z" stroke = "#ff0000" stroke-width = "1" fill = "#ff0000" />	<path d = "M311 275 L311 271 L307 271 L307 275 L311 275 Z" stroke = "#ff0000" stroke-width = "1" fill = "#ff0000" />	<path d = "M311 266 L311 262 L307 262 L307 266 L311 266 Z" stroke = "#ff0000" stroke-width = "1" fill = "#ff0000" />	<path d = "M311 257 L311 253 L307 253 L307 257 L311 257 Z" stroke = "#ff0000" stroke-width = "1" fill = "#ff0000" />	<path d = "M320 248 L320 244 L316 244 L316 248 L320 248 Z" stroke = "#ff0000" stroke-width = "1" fill = "#ff0000" />	<path d = "M329 239 L329 235 L325 235 L325 239 L329 239 Z" stroke = "#ff0000" stroke-width = "1" fill = "#ff0000" />	<path d = "M338 230 L338 226 L334 226 L334 230 L338 230 Z" stroke = "#ff0000" stroke-width = "1" fill = "#ff0000" />	<path d = "M347 230 L347 226 L343 226 L343 230 L347 230 Z" stroke = "#ff0000" stroke-width = "1" fill = "#ff0000" />	<path d = "M356 221 L356 217 L352 217 L352 221 L356 221 Z" stroke = "#ff0000" stroke-width = "1" fill = "#ff0000" />	<path d = "M365 221 L365 217 L361 217 L361 221 L365 221 Z" stroke = "#ff0000" stroke-width = "1" fill = "#ff0000" />	<path d = "M374 221 L374 217 L370 217 L370 221 L374 221 Z" stroke = "#ff0000" stroke-width = "1" fill = "#ff0000" />	<path d = "M383 221 L383 217 L379 217 L379 221 L383 221 Z" stroke = "#ff0000" stroke-width = "1" fill = "#ff0000" />	<path d = "M392 221 L392 217 L388 217 L388 221 L392 221 Z" stroke = "#ff0000" stroke-width = "1" fill = "#ff0000" />	<path d = "M401 221 L401 217 L397 217 L397 221 L401 221 Z" stroke = "#ff0000" stroke-width = "1" fill = "#ff0000" />	<path d = "M410 230 L410 226 L406 226 L406 230 L410 230 Z" stroke = "#ff0000" stroke-width = "1" fill = "#ff0000" />	<path d = "M419 230 L419 226 L415 226 L415 230 L419 230 Z" stroke = "#ff0000" stroke-width = "1" fill = "#ff0000" />	<path d = "M428 239 L428 235 L424 235 L424 239 L428 239 Z" stroke = "#ff0000" stroke-width = "1" fill = "#ff0000" />	<path d = "M437 248 L437 244 L433 244 L433 248 L437 248 Z" stroke = "#ff0000" stroke-width = "1" fill = "#ff0000" />	<path d = "M437 257 L437 253 L433 253 L433 257 L437 257 Z" stroke = "#ff0000" stroke-width = "1" fill = "#ff0000" />	<path d = "M446 266 L446 262 L442 262 L442 266 L446 266 Z" stroke = "#ff0000" stroke-width = "1" fill = "#ff0000" />	<path d = "M446 275 L446 271 L442 271 L442 275 L446 275 Z" stroke = "#ff0000" stroke-width = "1" fill = "#ff0000" />	<path d = "M446 284 L446 280 L442 280 L442 284 L446 284 Z" stroke = "#ff0000" stroke-width = "1" fill = "#ff0000" />	<path d = "M437 293 L437 289 L433 289 L433 293 L437 293 Z" stroke = "#ff0000" stroke-width = "1" fill = "#ff0000" />	<path d = "M437 302 L437 298 L433 298 L433 302 L437 302 Z" stroke = "#ff0000" stroke-width = "1" fill = "#ff0000" />	<path d = "M428 311 L428 307 L424 307 L424 311 L428 311 Z" stroke = "#ff0000" stroke-width = "1" fill = "#ff0000" />	<path d = "M419 320 L419 316 L415 316 L415 320 L419 320 Z" stroke = "#ff0000" stroke-width = "1" fill = "#ff0000" />	<path d = "M410 329 L410 325 L406 325 L406 329 L410 329 Z" stroke = "#ff0000" stroke-width = "1" fill = "#ff0000" />	<path d = "M518 284 L518 280 L514 280 L514 284 L518 284 Z" stroke = "#ff0000" stroke-width = "1" fill = "#ff0000" />	<path d = "M509 275 L509 271 L505 271 L505 275 L509 275 Z" stroke = "#ff0000" stroke-width = "1" fill = "#ff0000" />	<path d = "M500 266 L500 262 L496 262 L496 266 L500 266 Z" stroke = "#ff0000" stroke-width = "1" fill = "#ff0000" />	<path d = "M500 257 L500 253 L496 253 L496 257 L500 257 Z" stroke = "#ff0000" stroke-width = "1" fill = "#ff0000" />	<path d = "M500 248 L500 244 L496 244 L496 248 L500 248 Z" stroke = "#ff0000" stroke-width = "1" fill = "#ff0000" />	<path d = "M491 239 L491 235 L487 235 L487 239 L491 239 Z" stroke = "#ff0000" stroke-width = "1" fill = "#ff0000" />	<path d = "M491 230 L491 226 L487 226 L487 230 L491 230 Z" stroke = "#ff0000" stroke-width = "1" fill = "#ff0000" />	<path d = "M491 221 L491 217 L487 217 L487 221 L491 221 Z" stroke = "#ff0000" stroke-width = "1" fill = "#ff0000" />	<path d = "M491 212 L491 208 L487 208 L487 212 L491 212 Z" stroke = "#ff0000" stroke-width = "1" fill = "#ff0000" />	<path d = "M500 203 L500 199 L496 199 L496 203 L500 203 Z" stroke = "#ff0000" stroke-width = "1" fill = "#ff0000" />	<path d = "M446 140 L446 136 L442 136 L442 140 L446 140 Z" stroke = "#ff0000" stroke-width = "1" fill = "#ff0000" />	<path d = "M446 149 L446 145 L442 145 L442 149 L446 149 Z" stroke = "#ff0000" stroke-width = "1" fill = "#ff0000" />	<path d = "M446 158 L446 154 L442 154 L442 158 L446 158 Z" stroke = "#ff0000" stroke-width = "1" fill = "#ff0000" />	<path d = "M437 167 L437 163 L433 163 L433 167 L437 167 Z" stroke = "#ff0000" stroke-width = "1" fill = "#ff0000" />	<path d = "M428 167 L428 163 L424 163 L424 167 L428 167 Z" stroke = "#ff0000" stroke-width = "1" fill = "#ff0000" />	<path d = "M419 167 L419 163 L415 163 L415 167 L419 167 Z" stroke = "#ff0000" stroke-width = "1" fill = "#ff0000" />	<path d = "M410 167 L410 163 L406 163 L406 167 L410 167 Z" stroke = "#ff0000" stroke-width = "1" fill = "#ff0000" />	<path d = "M401 167 L401 163 L397 163 L397 167 L401 167 Z" stroke = "#ff0000" stroke-width = "1" fill = "#ff0000" />	<path d = "M392 158 L392 154 L388 154 L388 158 L392 158 Z" stroke = "#ff0000" stroke-width = "1" fill = "#ff0000" />	<path d = "M383 158 L383 154 L379 154 L379 158 L383 158 Z" stroke = "#ff0000" stroke-width = "1" fill = "#ff0000" />	<path d = "M374 149 L374 145 L370 145 L370 149 L374 149 Z" stroke = "#ff0000" stroke-width = "1" fill = "#ff0000" />	<path d = "M365 140 L365 136 L361 136 L361 140 L365 140 Z" stroke = "#ff0000" stroke-width = "1" fill = "#ff0000" />	<path d = "M356 131 L356 127 L352 127 L352 131 L356 131 Z" stroke = "#ff0000" stroke-width = "1" fill = "#ff0000" />	<path d = "M356 122 L356 118 L352 118 L352 122 L356 122 Z" stroke = "#ff0000" stroke-width = "1" fill = "#ff0000" />	<path d = "M356 113 L356 109 L352 109 L352 113 L356 113 Z" stroke = "#ff0000" stroke-width = "1" fill = "#ff0000" />	<path d = "M356 104 L356 100 L352 100 L352 104 L356 104 Z" stroke = "#ff0000" stroke-width = "1" fill = "#ff0000" />	<path d = "M365 95 L365 91 L361 91 L361 95 L365 95 Z" stroke = "#ff0000" stroke-width = "1" fill = "#ff0000" />	<path d = "M320 104 L320 100 L316 100 L316 104 L320 104 Z" stroke = "#ff0000" stroke-width = "1" fill = "#ff0000" />	<path d = "M311 104 L311 100 L307 100 L307 104 L311 104 Z" stroke = "#ff0000" stroke-width = "1" fill = "#ff0000" />	<path d = "M302 113 L302 109 L298 109 L298 113 L302 113 Z" stroke = "#ff0000" stroke-width = "1" fill = "#ff0000" />	<path d = "M302 122 L302 118 L298 118 L298 122 L302 122 Z" stroke = "#ff0000" stroke-width = "1" fill = "#ff0000" />	<path d = "M302 131 L302 127 L298 127 L298 131 L302 131 Z" stroke = "#ff0000" stroke-width = "1" fill = "#ff0000" />	<path d = "M311 140 L311 136 L307 136 L307 140 L311 140 Z" stroke = "#ff0000" stroke-width = "1" fill = "#ff0000" />	<path d = "M320 140 L320 136 L316 136 L316 140 L320 140 Z" stroke = "#ff0000" stroke-width = "1" fill = "#ff0000" />	<path d = "M329 140 L329 136 L325 136 L325 140 L329 140 Z" stroke = "#ff0000" stroke-width = "1" fill = "#ff0000" />	<path d = "M338 131 L338 127 L334 127 L334 131 L338 131 Z" stroke = "#ff0000" stroke-width = "1" fill = "#ff0000" />	<path d = "M338 122 L338 118 L334 118 L334 122 L338 122 Z" stroke = "#ff0000" stroke-width = "1" fill = "#ff0000" />	<path d = "M338 113 L338 109 L334 109 L334 113 L338 113 Z" stroke = "#ff0000" stroke-width = "1" fill = "#ff0000" />	<path d = "M329 104 L329 100 L325 100 L325 104 L329 104 Z" stroke = "#ff0000" stroke-width = "1" fill = "#ff0000" />	<path d = "M230 95 L230 91 L226 91 L226 95 L230 95 Z" stroke = "#ff0000" stroke-width = "1" fill = "#ff0000" />	<path d = "M230 104 L230 100 L226 100 L226 104 L230 104 Z" stroke = "#ff0000" stroke-width = "1" fill = "#ff0000" />	<path d = "M221 113 L221 109 L217 109 L217 113 L221 113 Z" stroke = "#ff0000" stroke-width = "1" fill = "#ff0000" />	<path d = "M212 122 L212 118 L208 118 L208 122 L212 122 Z" stroke = "#ff0000" stroke-width = "1" fill = "#ff0000" />	<path d = "M203 122 L203 118 L199 118 L199 122 L203 122 Z" stroke = "#ff0000" stroke-width = "1" fill = "#ff0000" />	<path d = "M194 131 L194 127 L190 127 L190 131 L194 131 Z" stroke = "#ff0000" stroke-width = "1" fill = "#ff0000" />	<path d = "M185 131 L185 127 L181 127 L181 131 L185 131 Z" stroke = "#ff0000" stroke-width = "1" fill = "#ff0000" />	<path d = "M176 140 L176 136 L172 136 L172 140 L176 140 Z" stroke = "#ff0000" stroke-width = "1" fill = "#ff0000" />	<path d = "M167 140 L167 136 L163 136 L163 140 L167 140 Z" stroke = "#ff0000" stroke-width = "1" fill = "#ff0000" />	<path d = "M158 140 L158 136 L154 136 L154 140 L158 140 Z" stroke = "#ff0000" stroke-width = "1" fill = "#ff0000" />	<path d = "M149 194 L149 190 L145 190 L145 194 L149 194 Z" stroke = "#ff0000" stroke-width = "1" fill = "#ff0000" />	<path d = "M140 194 L140 190 L136 190 L136 194 L140 194 Z" stroke = "#ff0000" stroke-width = "1" fill = "#ff0000" />	<path d = "M131 203 L131 199 L127 199 L127 203 L131 203 Z" stroke = "#ff0000" stroke-width = "1" fill = "#ff0000" />	<path d = "M122 212 L122 208 L118 208 L118 212 L122 212 Z" stroke = "#ff0000" stroke-width = "1" fill = "#ff0000" />	<path d = "M113 221 L113 217 L109 217 L109 221 L113 221 Z" stroke = "#ff0000" stroke-width = "1" fill = "#ff0000" />	<path d = "M113 230 L113 226 L109 226 L109 230 L113 230 Z" stroke = "#ff0000" stroke-width = "1" fill = "#ff0000" />	<path d = "M104 239 L104 235 L100 235 L100 239 L104 239 Z" stroke = "#ff0000" stroke-width = "1" fill = "#ff0000" />	<path d = "M104 248 L104 244 L100 244 L100 248 L104 248 Z" stroke = "#ff0000" stroke-width = "1" fill = "#ff0000" />	<path d = "M104 257 L104 253 L100 253 L100 257 L104 257 Z" stroke = "#ff0000" stroke-width = "1" fill = "#ff0000" />	<path d = "M113 266 L113 262 L109 262 L109 266 L113 266 Z" stroke = "#ff0000" stroke-width = "1" fill = "#ff0000" />	<path d = "M113 275 L113 271 L109 271 L109 275 L113 275 Z" stroke = "#ff0000" stroke-width = "1" fill = "#ff0000" />	<path d = "M122 284 L122 280 L118 280 L118 284 L122 284 Z" stroke = "#ff0000" stroke-width = "1" fill = "#ff0000" />	<path d = "M131 284 L131 280 L127 280 L127 284 L131 284 Z" stroke = "#ff0000" stroke-width = "1" fill = "#ff0000" />	<path d = "M140 275 L140 271 L136 271 L136 275 L140 275 Z" stroke = "#ff0000" stroke-width = "1" fill = "#ff0000" />	<path d = "M149 275 L149 271 L145 271 L145 275 L149 275 Z" stroke = "#ff0000" stroke-width = "1" fill = "#ff0000" />	<path d = "M158 266 L158 262 L154 262 L154 266 L158 266 Z" stroke = "#ff0000" stroke-width = "1" fill = "#ff0000" />	<path d = "M167 266 L167 262 L163 262 L163 266 L167 266 Z" stroke = "#ff0000" stroke-width = "1" fill = "#ff0000" />	<path d = "M176 257 L176 253 L172 253 L172 257 L176 257 Z" stroke = "#ff0000" stroke-width = "1" fill = "#ff0000" />	<path d = "M185 248 L185 244 L181 244 L181 248 L185 248 Z" stroke = "#ff0000" stroke-width = "1" fill = "#ff0000" />	<path d = "M185 239 L185 235 L181 235 L181 239 L185 239 Z" stroke = "#ff0000" stroke-width = "1" fill = "#ff0000" />	<path d = "M185 230 L185 226 L181 226 L181 230 L185 230 Z" stroke = "#ff0000" stroke-width = "1" fill = "#ff0000" />	<path d = "M185 221 L185 217 L181 217 L181 221 L185 221 Z" stroke = "#ff0000" stroke-width = "1" fill = "#ff0000" />	<path d = "M185 212 L185 208 L181 208 L181 212 L185 212 Z" stroke = "#ff0000" stroke-width = "1" fill = "#ff0000" />	<path d = "M176 203 L176 199 L172 199 L172 203 L176 203 Z" stroke = "#ff0000" stroke-width = "1" fill = "#ff0000" />	<path d = "M167 194 L167 190 L163 190 L163 194 L167 194 Z" stroke = "#ff0000" stroke-width = "1" fill = "#ff0000" />	<path d = "M158 194 L158 190 L154 190 L154 194 L158 194 Z" stroke = "#ff0000" stroke-width = "1" fill = "#ff0000" />	<path d = "M212 266 L212 262 L208 262 L208 266 L212 266 Z" stroke = "#ff0000" stroke-width = "1" fill = "#ff0000" />	<path d = "M221 266 L221 262 L217 262 L217 266 L221 266 Z" stroke = "#ff0000" stroke-width = "1" fill = "#ff0000" />	<path d = "M230 266 L230 262 L226 262 L226 266 L230 266 Z" stroke = "#ff0000" stroke-width = "1" fill = "#ff0000" />	<path d = "M239 275 L239 271 L235 271 L235 275 L239 275 Z" stroke = "#ff0000" stroke-width = "1" fill = "#ff0000" />	<path d = "M248 284 L248 280 L244 280 L244 284 L248 284 Z" stroke = "#ff0000" stroke-width = "1" fill = "#ff0000" />	<path d = "M257 293 L257 289 L253 289 L253 293 L257 293 Z" stroke = "#ff0000" stroke-width = "1" fill = "#ff0000" />	<path d = "M257 302 L257 298 L253 298 L253 302 L257 302 Z" stroke = "#ff0000" stroke-width = "1" fill = "#ff0000" />	<path d = "M257 311 L257 307 L253 307 L253 311 L257 311 Z" stroke = "#ff0000" stroke-width = "1" fill = "#ff0000" />	<path d = "M248 320 L248 316 L244 316 L244 320 L248 320 Z" stroke = "#ff0000" stroke-width = "1" fill = "#ff0000" />	<path d = "M239 329 L239 325 L235 325 L235 329 L239 329 Z" stroke = "#ff0000" stroke-width = "1" fill = "#ff0000" />	<path d = "M230 329 L230 325 L226 325 L226 329 L230 329 Z" stroke = "#ff0000" stroke-width = "1" fill = "#ff0000" />	<path d = "M221 329 L221 325 L217 325 L217 329 L221 329 Z" stroke = "#ff0000" stroke-width = "1" fill = "#ff0000" />	<path d = "M212 329 L212 325 L208 325 L208 329 L212 329 Z" stroke = "#ff0000" stroke-width = "1" fill = "#ff0000" />	<path d = "M203 329 L203 325 L199 325 L199 329 L203 329 Z" stroke = "#ff0000" stroke-width = "1" fill = "#ff0000" />	<path d = "M194 320 L194 316 L190 316 L190 320 L194 320 Z" stroke = "#ff0000" stroke-width = "1" fill = "#ff0000" />	<path d = "M185 311 L185 307 L181 307 L181 311 L185 311 Z" stroke = "#ff0000" stroke-width = "1" fill = "#ff0000" />	<path d = "M185 302 L185 298 L181 298 L181 302 L185 302 Z" stroke = "#ff0000" stroke-width = "1" fill = "#ff0000" />	<path d = "M185 293 L185 289 L181 289 L181 293 L185 293 Z" stroke = "#ff0000" stroke-width = "1" fill = "#ff0000" />	<path d = "M185 284 L185 280 L181 280 L181 284 L185 284 Z" stroke = "#ff0000" stroke-width = "1" fill = "#ff0000" />	<path d = "M194 275 L194 271 L190 271 L190 275 L194 275 Z" stroke = "#ff0000" stroke-width = "1" fill = "#ff0000" />	<path d = "M203 266 L203 262 L199 262 L199 266 L203 266 Z" stroke = "#ff0000" stroke-width = "1" fill = "#ff0000" /></svg>